<svg viewBox="0 0 800 400" xmlns="http://www.w3.org/2000/svg" width="800" height="400">
  <defs>
    <linearGradient id="bg3" x1="0%" y1="0%" x2="100%" y2="100%">
      <stop offset="0%" style="stop-color:#0e0c1a"/>
      <stop offset="100%" style="stop-color:#1e1a38"/>
    </linearGradient>
  </defs>
  <rect width="800" height="400" fill="url(#bg3)"/>
  <!-- KPI cards grid -->
  <!-- Card 1 -->
  <rect x="40" y="40" width="160" height="90" rx="8" fill="rgba(124,92,252,0.1)" stroke="rgba(124,92,252,0.35)" stroke-width="1"/>
  <text x="55" y="65" font-family="monospace" font-size="9" fill="#6a6a8a" letter-spacing="1">KPI-001</text>
  <text x="55" y="82" font-family="monospace" font-size="11" fill="#eeedfe" font-weight="600">Active Registrants</text>
  <text x="55" y="100" font-family="monospace" font-size="18" fill="#afa9ec" font-weight="700">38,104</text>
  <rect x="55" y="110" width="38" height="12" rx="6" fill="rgba(29,158,117,0.2)" stroke="rgba(29,158,117,0.4)" stroke-width="0.8"/>
  <text x="74" y="119" font-family="monospace" font-size="8" fill="#1d9e75" text-anchor="middle">Live</text>
  <!-- Card 2 -->
  <rect x="215" y="40" width="160" height="90" rx="8" fill="rgba(124,92,252,0.1)" stroke="rgba(124,92,252,0.35)" stroke-width="1"/>
  <text x="230" y="65" font-family="monospace" font-size="9" fill="#6a6a8a" letter-spacing="1">KPI-002</text>
  <text x="230" y="82" font-family="monospace" font-size="11" fill="#eeedfe" font-weight="600">New Reg. (MTD)</text>
  <text x="230" y="100" font-family="monospace" font-size="18" fill="#afa9ec" font-weight="700">247</text>
  <rect x="230" y="110" width="38" height="12" rx="6" fill="rgba(29,158,117,0.2)" stroke="rgba(29,158,117,0.4)" stroke-width="0.8"/>
  <text x="249" y="119" font-family="monospace" font-size="8" fill="#1d9e75" text-anchor="middle">Live</text>
  <!-- Card 3 -->
  <rect x="390" y="40" width="160" height="90" rx="8" fill="rgba(239,159,39,0.08)" stroke="rgba(239,159,39,0.35)" stroke-width="1"/>
  <text x="405" y="65" font-family="monospace" font-size="9" fill="#6a6a8a" letter-spacing="1">KPI-003</text>
  <text x="405" y="82" font-family="monospace" font-size="11" fill="#eeedfe" font-weight="600">Processing Time</text>
  <text x="405" y="100" font-family="monospace" font-size="18" fill="#ef9f27" font-weight="700">14.3d</text>
  <rect x="405" y="110" width="60" height="12" rx="6" fill="rgba(239,159,39,0.15)" stroke="rgba(239,159,39,0.4)" stroke-width="0.8"/>
  <text x="435" y="119" font-family="monospace" font-size="8" fill="#ef9f27" text-anchor="middle">Review</text>
  <!-- Card 4 -->
  <rect x="565" y="40" width="195" height="90" rx="8" fill="rgba(124,92,252,0.1)" stroke="rgba(124,92,252,0.35)" stroke-width="1"/>
  <text x="580" y="65" font-family="monospace" font-size="9" fill="#6a6a8a" letter-spacing="1">KPI-004</text>
  <text x="580" y="82" font-family="monospace" font-size="11" fill="#eeedfe" font-weight="600">Lapsed Rate</text>
  <text x="580" y="100" font-family="monospace" font-size="18" fill="#afa9ec" font-weight="700">9.6%</text>
  <rect x="580" y="110" width="38" height="12" rx="6" fill="rgba(29,158,117,0.2)" stroke="rgba(29,158,117,0.4)" stroke-width="0.8"/>
  <text x="599" y="119" font-family="monospace" font-size="8" fill="#1d9e75" text-anchor="middle">Live</text>
  <!-- Lineage diagram -->
  <rect x="40" y="155" width="720" height="160" rx="10" fill="rgba(30,26,56,0.6)" stroke="rgba(175,169,236,0.12)" stroke-width="1"/>
  <text x="60" y="178" font-family="monospace" font-size="10" fill="#6a6a8a" letter-spacing="1">DATA LINEAGE · KPI-001 · Active Registrants</text>
  <line x1="40" y1="185" x2="760" y2="185" stroke="rgba(175,169,236,0.1)" stroke-width="0.8"/>
  <!-- Source node -->
  <rect x="60" y="200" width="155" height="50" rx="6" fill="rgba(239,159,39,0.1)" stroke="rgba(239,159,39,0.35)" stroke-width="1"/>
  <text x="137" y="222" font-family="monospace" font-size="10" fill="#6a6a8a" text-anchor="middle">Source</text>
  <text x="137" y="238" font-family="monospace" font-size="10" fill="#ef9f27" text-anchor="middle">tbl_Registrant</text>
  <!-- Arrow -->
  <line x1="215" y1="225" x2="280" y2="225" stroke="#afa9ec" stroke-width="1" stroke-dasharray="4,3" opacity="0.5"/>
  <polygon points="280,221 290,225 280,229" fill="#afa9ec" opacity="0.5"/>
  <!-- Transform node -->
  <rect x="290" y="200" width="220" height="50" rx="6" fill="rgba(124,92,252,0.1)" stroke="rgba(124,92,252,0.3)" stroke-width="1"/>
  <text x="400" y="222" font-family="monospace" font-size="10" fill="#6a6a8a" text-anchor="middle">Transform</text>
  <text x="400" y="238" font-family="monospace" font-size="9" fill="#afa9ec" text-anchor="middle">status IN (Active, Registered)</text>
  <!-- Arrow -->
  <line x1="510" y1="225" x2="575" y2="225" stroke="#afa9ec" stroke-width="1" stroke-dasharray="4,3" opacity="0.5"/>
  <polygon points="575,221 585,225 575,229" fill="#afa9ec" opacity="0.5"/>
  <!-- Target node -->
  <rect x="585" y="200" width="155" height="50" rx="6" fill="rgba(29,158,117,0.1)" stroke="rgba(29,158,117,0.35)" stroke-width="1"/>
  <text x="662" y="222" font-family="monospace" font-size="10" fill="#6a6a8a" text-anchor="middle">Target</text>
  <text x="662" y="238" font-family="monospace" font-size="10" fill="#1d9e75" text-anchor="middle">Power BI measure</text>
  <!-- Issue flag -->
  <rect x="60" y="268" width="680" height="28" rx="4" fill="rgba(239,159,39,0.06)" stroke="rgba(239,159,39,0.2)" stroke-width="0.8"/>
  <text x="78" y="285" font-family="monospace" font-size="10" fill="#ef9f27">⚠  ExpiryDate null rate 0.2% — nulls excluded, may undercount by ~80 records</text>
  <!-- Title -->
  <text x="40" y="378" font-family="monospace" font-size="11" fill="#6a6a8a" letter-spacing="2">KPI DEFINITION &amp; DATA LINEAGE CATALOGUE</text>
</svg>
